# xmcd CD database file generated by Grip 3.2.0
# 
# Track frame offsets:
#       150
#       23025
#       44580
#       78734
#       104142
#       149109
#       177882
#       205515
#       223847
# 
# Disc length: 3452 seconds
# 
# Revision: 2
# Processed by: cddbd v1.5.2PL0 Copyright (c) Steve Scherf et al.
# Submitted via: Grip 3.2.0
# 
DISCID=8b0d7a09
DTITLE=Marc Copland and Greg Osby - Round and Round
DYEAR=2003
DGENRE=Jazz
TTITLE0=Osby - Silent Attitude
TTITLE1=Copland - Balloonman
TTITLE2=Copland - Round she goes
TTITLE3=Osby - Mentor's praise
TTITLE4=Copland - Whatever the moon
TTITLE5=Copland - The wizard
TTITLE6=Osby - Copious
TTITLE7=Copland - Deed-Lee-Yah
TTITLE8=Robin, Rainger - Easy Living
EXTD=YEAR: 2003
EXTT0=
EXTT1=
EXTT2=
EXTT3=
EXTT4=
EXTT5=
EXTT6=
EXTT7=
EXTT8=
PLAYORDER=
